<svg version="1.1" id="Artwork" xmlns:x="ns_extend;" xmlns:i="ns_ai;" xmlns:graph="ns_graphs;" xmlns="http://www.w3.org/2000/svg" xmlns:xlink="http://www.w3.org/1999/xlink" x="0px" y="0px" viewBox="0 0 551.9 156" style="enable-background:new 0 0 551.9 156;" xml:space="preserve">
 <style type="text/css">
  .st0{fill:#E32851;}
	.st1{fill:#FF932C;}
	.st2{fill:#0088D9;}
 </style>
 <metadata>
  <sfw xmlns="ns_sfw;">
   <slices>
   </slices>
   <sliceSourceBounds bottomLeftOrigin="true" height="156" width="551.9" x="863.2" y="-211.9">
   </sliceSourceBounds>
  </sfw>
 </metadata>
 <g>
  <path class="st0" d="M164.4,36.2h23.9c0.7,0,1.2,0.6,1.2,1.2V115c0,0.7-0.6,1.2-1.2,1.2h-23.9c-0.7,0-1.2-0.6-1.2-1.2V37.5
		C163.2,36.8,163.7,36.2,164.4,36.2z">
  </path>
  <path class="st1" d="M257.6,37l-15.8,42c-0.1,0.2-0.4,0.2-0.5,0l-15.9-42c-0.2-0.5-0.6-0.8-1.2-0.8H198c-0.9,0-1.5,0.9-1.2,1.7
		l31.5,77.5c0.2,0.5,0.6,0.8,1.2,0.8h23c0.5,0,1-0.3,1.2-0.8L285.3,38c0.3-0.8-0.3-1.7-1.2-1.7h-25.5
		C258.2,36.2,257.7,36.6,257.6,37L257.6,37z">
  </path>
  <path class="st2" d="M508.7,35c-25,0-43.2,17.6-43.2,41.3s18.2,41.3,43.2,41.3c24.7,0,43.2-17.8,43.2-41.3
		C551.9,52.7,533.5,35,508.7,35z M508.7,95.1c-9.8,0-16.3-7.5-16.3-18.8s6.5-18.8,16.3-18.8c9.7,0,16.3,7.5,16.3,18.8
		C525,87.5,518.4,95.1,508.7,95.1z">
  </path>
  <path class="st0" d="M154.4,35.9c-0.7-0.2-1.6-0.4-2.5-0.6c-1.5-0.2-17.8-2.1-26.8,10.1c-0.2,0.2-0.5,0.1-0.5-0.2v-6.4l0,0h0v-1.3
		c0-0.7-0.6-1.2-1.2-1.2H99.4c-0.7,0-1.2,0.6-1.2,1.2V115c0,0.7,0.6,1.2,1.2,1.2h23.9c0.7,0,1.2-0.6,1.2-1.2V86.2
		c0-21.5,10-26.9,19.8-26.9c1.2,0,4.5,0,9.3,1.3c0.8,0.2,1.6-0.4,1.6-1.2V37C155.2,36.5,154.9,36,154.4,35.9L154.4,35.9z">
  </path>
  <path class="st0" d="M176.4,0c-8.4,0-15.1,6.5-15.1,14.6s6.8,14.6,15.1,14.6c8.4,0,15.1-6.5,15.1-14.6S184.7,0,176.4,0z">
  </path>
  <path class="st1" d="M367.3,36.2h-23.9c-0.7,0-1.2,0.6-1.2,1.2v7.6c0,0.3-0.4,0.4-0.5,0.1c-8.6-18.1-59.9-14.6-59.9,31
		c0,42.6,43.8,50.2,59.9,32.4c0.2-0.2,0.5-0.1,0.5,0.2v6.2c0,0.7,0.6,1.2,1.2,1.2h23.9c0.7,0,1.2-0.6,1.2-1.2V37.5
		C368.5,36.8,368,36.2,367.3,36.2L367.3,36.2z M325.5,95c-10.5,0-17.9-7.4-17.9-18.7s7.4-18.9,17.9-18.9c10.7,0,17.9,7.7,17.9,18.9
		S336.2,95,325.5,95L325.5,95z">
  </path>
  <path class="st2" d="M457.7,36.2h-23.9c-0.7,0-1.2,0.6-1.2,1.2v7.6c0,0.3-0.4,0.4-0.5,0.1c-8.7-18.3-56.4-13.7-56.4,28.7
		c0,41.6,43.5,45.1,56.5,32.9c0.2-0.2,0.5,0,0.5,0.2v3.7h0c-0.3,17.7-22.5,25.3-33.8,11.9c-0.4-0.5-1.1-0.6-1.6-0.2L377,135.6
		c-0.6,0.4-0.7,1.2-0.3,1.8c25.8,35.2,81.9,17.3,82.3-26.4h0V37.5C459,36.8,458.4,36.2,457.7,36.2L457.7,36.2z M418.2,90.8
		c-9.5,0-16.2-6.6-16.2-16.9s6.6-17,16.2-17c9.7,0,16.2,6.9,16.2,17S427.9,90.8,418.2,90.8z">
  </path>
  <path class="st0" d="M89.8,72.5h-24c-0.6,0-1.2,0.5-1.2,1.2c-0.8,9.8-9,17.6-19,17.6C33.5,91.2,28.6,81,28.6,81
		c-2.1-3.9-2.2-7.7-2.2-8.5c0-0.1,0.1-0.2,0.1-0.2l6.9-3.8l0,0l43.4-24c0.7-0.4,1.1-1.1,1.1-1.8V16.9c0-0.9-1-1.5-1.8-1.1L26.8,43
		c-0.2,0.1-0.4,0-0.4-0.2V2.2c0-1-1.1-1.6-1.9-1L0.9,16.4c-0.6,0.4-0.9,1-0.9,1.7v54.3c0.2,25,20.5,45.2,45.5,45.2
		c24.6,0,44.6-19.5,45.5-43.9C91.1,73.1,90.5,72.5,89.8,72.5L89.8,72.5z">
  </path>
 </g>
</svg>