<svg version="1.1" id="Layer_1" xmlns="http://www.w3.org/2000/svg" xmlns:xlink="http://www.w3.org/1999/xlink" x="0px" y="0px" viewBox="0 0 480.4 152.8" style="enable-background:new 0 0 480.4 152.8;" xml:space="preserve">
 <style type="text/css">
  .st0{fill:#EB2226;}
	.st1{fill:#FFFFFF;}
	.st2{fill:#0055B7;}
 </style>
 <g>
  <path class="st0" d="M315.6,152.8c9.2-0.1,18-3.7,24.4-10.2c6.5-6.5,10.1-15.2,10.1-24.4V34.8c0-9.2-3.6-18-10-24.6
		C333.6,3.7,324.8,0,315.6,0h-83.9c-9.2,0.1-18,3.7-24.4,10.2c-6.5,6.6-10.1,15.4-10.1,24.6v83.5c0.1,19,15.5,34.3,34.4,34.4">
  </path>
  <path class="st1" d="M291.8,81.1c-3.2,10.8,2,21.6,13.2,17.3c-3.2,7.8-8.6,19.4-8.6,31.6c0,0,0,8.2,6,10.2c0,0,8.4,2,6.6-5.4
		c-1.3-4.7-1.7-9.5-1.1-14.3c2-10,5.2-19.7,9.2-29c0,0,12.8-26.8,20.3-39.2c0,0,3.1-6.4-3.2-6.4c-1.9,0-3.7,1-4.9,2.5l-18.1,32.3
		c-2.8,5-5.4,6.6-7.4,6.6c-4.6,0-3.6-7.3-2.9-10c2-9,5.3-17.6,9.6-25.9c3.2-7.1-3.2-7.7-3.2-7.7c-4.1-1.1-7.2,5.6-7.2,5.6L292.8,64
		c-4.7,8.2-9.8,16-15.4,23.5c0,0-1,1.2-1.7,0.7c-0.7-0.6-0.4-1.8-0.4-1.8c1.2-10,3.2-19.8,6-29.5c0.1-0.6,0.2-1.1,0.2-1.7
		c0.1-1.3-0.2-2.6-1.1-3.6c-0.8-1.1-2-1.7-3.4-1.7c-3.2-0.4-4.8,1.2-7.7,4.7c-6.4,7.8-13.8,19.6-17.4,24.8c-0.4,0.6-1.1,0.5-1.1-0.4
		c0-2.4,8.4-28.3,8.4-28.3s1-3.6-1.9-4.8c0,0-4.4-2.8-8,2.6l-17.3,23.5c-1.3,1.8-2,1.2-2,1.2v-1.6l2.8-15.4
		c2.2-11.8-1.9-12.4-4.6-12.8c-1.9,0-4,0.6-5.6,1.7c-5.4,2.6-9.5,13.3-9.5,13.3s-1.2,3.8,1.4,5.4c0.8,0.5,1.8,0.8,2.8,0.7
		c3.8-0.2,4.6-7.3,7.3-7.3c0.5,0,0.5,0.6,0.5,0.7l-8.9,37.3c-0.6,2.2,0.4,4.4,2.2,5.6c1.2,0.7,2.5,0.8,3.8,0.6
		c1.2-0.4,2.3-1.2,3-2.3l3.2-5c4.7-8.3,13.3-20.2,14.2-20.2c0.4,0,0.5,0,0.5,0.4l-3.2,22c-0.4,1.9,0.7,4,2.5,4.8
		c1.7,0.6,3.5,0.5,5-0.4c1.8-1.4,3.4-3.2,4.4-5.3c1.8-2.9,10.4-13.1,15.7-22.4c0.4-0.6,0.7,0,0.6,0.4c-1.1,4.9-1.9,18-2,21.2
		c-0.2,6.4,4.7,7.1,4.8,7.1c3.2,0.2,6.4-1.2,8.2-3.8">
  </path>
  <path class="st2" d="M33.6,95.6H24V74.2c0.1-2.4-0.4-4.8-1.4-6.8c-1.1-1.6-3-2.5-4.9-2.3c-1.7,0-3.2,0.4-4.6,1.2
		c-1.4,1-2.6,2.3-3.5,3.7v25.7H0v-39h5.4L9,61.9c1-0.8,1.9-1.6,2.9-2.3c1-0.6,1.9-1.1,3-1.6s2.2-0.8,3.2-1.1s2.3-0.4,3.5-0.4
		c1.3,0,2.6,0.1,3.8,0.5c1,0.4,1.9,0.7,2.9,1.3c0.7,0.6,1.4,1.3,2,2c0.7,1,1.2,1.8,1.7,2.8c0.7-0.7,1.6-1.6,2.5-2.3s2-1.4,3.2-2
		c1.1-0.7,2.3-1.3,3.6-1.8c1.4-0.4,2.9-0.6,4.4-0.6c1.9,0,3.7,0.5,5.4,1.3c1.6,1,2.9,2.2,3.7,3.6c1,1.8,1.7,3.6,2,5.6
		c0.5,2.3,0.7,4.6,0.7,7v21.6H48V74.2c0.2-2.4-0.2-4.8-1.4-6.8c-1.1-1.6-2.9-2.5-4.8-2.3c-1.6,0-3.1,0.4-4.6,1.2
		c-1.4,1-2.8,2.2-3.6,3.7">
  </path>
  <path class="st2" d="M89,77.9h-8.5c-1.8-0.1-3.5,0.4-5,1.3c-1,1-1.6,2.3-1.6,3.7c0,1.3,0.5,2.5,1.4,3.5c1.1,0.8,2.5,1.3,4,1.2
		c1.1,0,2.2-0.1,3.2-0.5c1-0.2,1.9-0.6,2.8-1.1c0.8-0.6,1.6-1.2,2.2-1.8c0.7-0.7,1.2-1.4,1.7-2.2 M89,91.3c-1.3,1.3-3,2.4-4.7,3.1
		c-2.3,0.8-4.7,1.3-7.1,1.2c-1.7,0.1-3.5-0.2-5-0.8c-1.4-0.6-2.8-1.4-4-2.5c-1.1-1.2-1.9-2.5-2.5-4c-0.6-1.6-0.8-3.2-0.8-4.9
		c0-7.2,5.6-11.9,14.6-11.9h9.6v-2.2c0-1.4-0.8-2.6-2-3.2c-1.9-0.8-4.1-1.3-6.2-1.2c-2.4,0-4.8,0.4-7.1,0.8
		c-1.8,0.5-3.6,1.1-5.4,1.8l-1.1-8c0.6-0.4,1.4-0.6,2.5-1c1-0.4,2.2-0.6,3.2-1c1.1-0.2,2.5-0.5,4-0.7c1.4-0.2,3-0.2,4.6-0.2
		c4.4-0.4,9,1.1,12.4,4c3,3.1,4.4,7.3,4.2,11.5v23.5h-6.8L89,91.3z">
  </path>
  <polyline class="st2" points="143.2,56 127.7,75.5 145.3,95.5 133.3,95.5 117,75.7 117,95.5 107.5,95.5 107.5,42.1 117,42.1 
		117,75.7 131.5,56 143.2,56 	">
  </polyline>
  <path class="st2" d="M164.4,65.3c-1.2,0-2.4,0.1-3.5,0.5c-1,0.2-1.9,0.7-2.6,1.3c-0.8,0.5-1.4,1.2-1.9,2c-0.5,0.8-0.8,1.7-1.1,2.6
		h16.9c0-0.8-0.1-1.7-0.5-2.5c-0.2-0.7-0.8-1.4-1.4-2c-0.7-0.6-1.6-1.1-2.4-1.4C166.7,65.4,165.5,65.2,164.4,65.3 M166.2,87.2
		c1.4,0,3-0.1,4.4-0.5c1.3-0.2,2.6-0.6,3.8-1.1c1.1-0.4,2.2-0.8,3.1-1.4c0.5-0.2,1-0.6,1.4-1l1.8,8.5c-2,1.1-4.2,2-6.5,2.8
		c-2.6,0.7-5.4,1.1-8.2,1.1c-3,0-6-0.5-8.9-1.4c-2.3-0.8-4.6-2.2-6.4-4c-1.8-1.7-3.1-3.8-4-6.1c-1.1-2.4-1.6-5-1.7-7.8
		c0-2.5,0.4-5,1.2-7.4s2-4.4,3.7-6.4c1.6-1.8,3.6-3.2,5.9-4.2c5.2-2,11-2,16.2,0c2.2,0.8,4,2.3,5.5,4c1.4,1.7,2.5,3.6,3.2,5.6
		c0.6,2.2,1,4.4,1,6.7c0,0.6,0,1.3,0,2c-0.1,0.7-0.2,1.4-0.4,2h-26.5c0.1,1.3,0.5,2.5,1.1,3.6c0.5,1.1,1.3,2,2.3,2.8
		c1,0.8,2,1.4,3.4,1.7c1.3,0.5,2.8,0.7,4.3,0.7L166.2,87.2L166.2,87.2z">
  </path>
  <path class="st2" d="M359.4,62.2l12.7-15.4h2.9v9.7h10.9v8.4H375V81c0,0.8,0.1,1.8,0.4,2.8c0.2,0.6,0.6,1.2,1.1,1.8
		c0.5,0.4,1.1,0.7,1.7,0.8c0.6,0.2,1.2,0.4,1.9,0.4c1.1,0,2.2-0.1,3.1-0.5c1-0.1,1.8-0.5,2.6-0.8V94c-1,0.5-2,0.8-3.2,1.1
		c-3.4,0.7-6.8,0.6-10.1-0.4c-1.6-0.5-2.9-1.3-4.1-2.4c-1-1.1-1.8-2.4-2.3-3.8c-0.5-1.6-0.8-3.4-0.7-5V65.2h-6.2">
  </path>
  <path class="st2" d="M402.2,64.7c1.4-2.4,3.2-4.4,5.5-6c1.9-1.4,4.3-2.2,6.8-2c0.7-0.1,1.4-0.1,2.2,0l1.3,0.2c0,0-0.2,2.2-1.7,8.9
		c-0.7-0.1-1.4-0.2-2.2-0.1c-1.7-0.1-3.2,0.2-4.8,0.8c-1.4,0.6-2.6,1.6-3.6,2.8c-1,1.2-1.8,2.6-2.3,4.2c-0.5,1.9-0.7,3.8-0.7,5.8
		v16.4h-9.6v-39h6">
  </path>
  <path class="st2" d="M461.2,65.2c-1.1-0.1-2.2,0.1-3.1,0.5c-1,0.4-1.8,0.8-2.6,1.4c-0.7,0.5-1.3,1.2-1.9,1.9
		c-0.5,0.7-1,1.4-1.2,2.3v11c0.4,0.7,0.8,1.3,1.4,1.9c0.6,0.6,1.2,1.1,1.9,1.6c0.8,0.5,1.7,0.8,2.5,1.1c2.4,0.6,4.9,0.5,7.2-0.4
		c1.1-0.6,2.2-1.3,2.9-2.3c0.8-1,1.4-2.2,1.8-3.4c0.4-1.4,0.6-3,0.7-4.6c0-1.4-0.2-3-0.7-4.6c-0.4-1.3-1-2.5-1.8-3.6
		c-0.8-1-1.8-1.8-3-2.3c-1.2-0.6-2.4-0.8-3.7-0.8 M463.8,56.6c2.6-0.1,5.2,0.5,7.4,1.6c2,1.1,3.7,2.5,5.2,4.4c1.3,1.9,2.4,4.1,3,6.4
		c0.6,2.4,1,4.9,1,7.3c0,2.5-0.4,5-1.1,7.4c-0.6,2.3-1.7,4.3-3.1,6.1c-1.4,1.8-3.1,3.2-5.2,4.2c-2.2,1.1-4.7,1.6-7.1,1.6
		c-2.4,0-4.7-0.4-6.8-1.2c-1.8-0.8-3.5-1.9-4.8-3.5v20.3h-9.6V56.6h5.6l3.7,4.7c1.4-1.4,3.2-2.6,5.3-3.6c2-0.7,4.2-1.2,6.4-1.1
		L463.8,56.6L463.8,56.6z">
  </path>
  <path class="st2" d="M427.9,40.7c-2.8,0-4.9,2.2-4.9,4.9s2.2,5,4.9,5s4.9-2.3,4.9-5c0.1-1.3-0.5-2.5-1.4-3.5
		c-0.8-1-2.2-1.6-3.5-1.6 M432.6,95.6H423v-39h9.6V95.6z">
  </path>
 </g>
</svg>