<?xml version="1.0" encoding="utf-8"?>
<!-- Generator: Adobe Illustrator 25.2.0, SVG Export Plug-In . SVG Version: 6.00 Build 0)  -->
<svg version="1.1" id="Layer_1" xmlns="http://www.w3.org/2000/svg" xmlns:xlink="http://www.w3.org/1999/xlink" x="0px" y="0px"
	 viewBox="0 0 1200 800" style="enable-background:new 0 0 1200 800;" xml:space="preserve">
<style type="text/css">
	.st0{fill-rule:evenodd;clip-rule:evenodd;}
</style>
<g id="Graphic_Elements">
	<path class="st0" d="M455,461.6l8.5,7.4c0,0,9.2,22.2,11.1,23.4s8.9-15.4,8.9-15.4l6.9-0.4l5.9,3.5l-0.2-2.7
		C496,477.3,472,456.3,455,461.6 M1136.6,456.1c0.3-2.2,5.8-8.6,4-14.2s-3.9-5.9-3.9-5.9l-2.6-4.4c0,0-5.9,5-6.1,6.4
		s-5.2,7.8-5.1,11s-12-0.7-12-0.7l6,6.6c0,0-5.2,11.4-4.3,12.9c0,0,15.7,0.3,23.2-4.6l9,3.4l4.4,2.4l0.9-6.6
		C1150,462.3,1136.4,458.3,1136.6,456.1 M948.5,449.6c0,0-6.4-3.5-9.5-3.9s-14.5-1-17.3,0l7.5,6.8c0,0-12.5,15.4-11.1,24.5
		c0,0,22.2-5.6,25.3-17.3l4.8-0.7l6.9,3.6l5,1.6l0.4-3.1l-10.2-6.2L948.5,449.6z M466.9,362.9l2.8-5l-4.1-1l-4-1.9
		c0,0-15.7-12.3-30-11.5l6.3,8c0,0,1,20.7,5.4,22.6s12.7-15.8,12.7-15.8l8.2,1.5L466.9,362.9z M699.7,553.5c12.4-6.9,5.6-27,5.6-27
		c-2.3-2.1-20.1,21.1-20.1,21.1l-11.3-1.5c6.6,13.4,31.5,15.8,31.5,15.8l4.9,2.9l2.6-0.1l0.6-4.4l-7.5-2.3L699.7,553.5z
		 M646.5,360.5l-3.8-2.7l-7.2-5.4c0,0,8.7-14.5,2.1-24.3l-5.8,4.2c0,0-10.7,9.8-10.1,13s-13.1-0.4-13.1-0.4l-0.2,1.3
		c0,0,6.2,4.8,6,6.1s-0.5,3.5-0.5,3.5s17,2.7,18.5,2.9s9.4,3.9,9.4,3.9L646.5,360.5z M820.1,344.2c-6.8-0.6-15.6-2-15.6-2l-0.4,0.8
		l8.5,5.6c0,0,1.6,13.1,2.7,14.7s4.1,9,4.1,9s12-13.6,11.7-15.9s13.9,1.8,13.9,1.8S827,344.8,820.1,344.2 M1024.3,504.2
		c0,0,10,1.9,15.4,0.9s8.2,0.5,8.2,0.5l6.1,3.6l3.4-5.5l-9.9-2.7l-2.5-3.4c0,0,4.1-16.1-6.5-20.5c0,0-9.4,14-9.5,14.8
		s-10.7-1.1-10.7-1.1l0.6,2.6l6.8,5.7L1024.3,504.2z M790.1,471.5l3.9,2.8c0,0,6,1.9,3.9-2s-23.4-15.2-25.8-16.9s-10.9-2-10.9-2
		l5.4,6.6c1.3,0.5-0.1,3.4-0.1,3.4c-4.8,1.6-9.4,23.8-9.4,23.8c4.2,0.6,6.6-5,14.6-6s15.5-10.4,15.5-10.4L790.1,471.5z M629,399
		l-1.4,0.7c0,0,7.7,6.6,8.8,8.7s2.9,18.4,7.9,20.5s8.9-12.4,8.9-12.4l0.8-0.7l3.2,0.7l5.5,3.5l5.2-1.6C667.7,418.4,643,398,629,399
		 M587.4,452.5c-3.1-3.8-9.9,7.7-12.3,8.2s-7.2,9.7-7.1,11.7l-1.1,0.7c0,0-10.1-3.6-10.9-2.3s2.9,3.2,2.9,3.2s9.6,9.7,13.5,10.5
		s15.2,2,15.2,2l5.6,2.7l2.1-0.9c0,0-9.9-7.2-11.2-7.4S590.5,456.2,587.4,452.5 M391.7,320c0,0,5.7,8.4,26.1,12.8l6,2.1l0.8,2.3
		l1.5-3.4l-11-7.7l1.9-2.4c0,0,7.2-15.2-1.5-20.8c0,0-13.8,13-13.1,16.2c0,0-12.1-3.4-14-1.4l0.4,1.4L391.7,320z M255.9,358.7
		c2,2.8,11.9-8.6,11.9-8.6l3.6-4.6l6.1-5.8l12.5,4.7l0.9-2.4c0,0-21.5-18.1-39.9-14.9l7.6,5.6C258.6,332.6,253.8,355.9,255.9,358.7
		 M614.5,553.4l7.2,2.9v-2.5c0,0-7.2-3.2-8.8-3.7s-1.5-3.8-1.5-3.8l5.3-5.2l-1.5-1c0,0,7.7-8.6,7.9-9.7s-4.4-2-6.4-1.4
		s-19,4.5-18.9,10.8l-12.2-0.2C585.7,539.6,591.5,550.2,614.5,553.4 M290.9,418.6l5.6,2.8l1.8-4.4l-8-2.6l-5.4-4.3
		c3.8-1.5,6.8-15.4,6.8-15.4l-6.5-0.8c0,0,7.9-1.5,8.2-3.5s-3.6-13.2-3.6-13.2s-4.2,9.1-6.5,8.8s-11.9,18.3-11.9,18.3l-10.6-0.9
		C265.6,415.8,290.9,418.6,290.9,418.6 M78.3,357.1c10.3-14.3,2.5-27,2.5-27s-5.2,7.4-7.3,7.5s-11.6,12.8-11.6,12.8L50,349.4
		c1.5,4.7,19.1,14.1,19.1,14.1l11.9,1.5c2.6,0.3,6.1,5.3,6.1,5.3l2.4-1.9l1.5-3.8l-13-5.3L78.3,357.1z M478.3,420.4
		c2.3,2.5,16.5,2.2,16.5,2.2l4.5,1.5l0.3-2.2l-4.6-1.5c0,0-4.4-2.4-4.8-3.8s3.1-11.7,3.1-11.7l5.7-7.8l-0.2-2.7
		c-8.3-0.6-25.4,14.1-25.4,14.1l-9.3-1.2C466.6,416.6,475.9,417.8,478.3,420.4 M630.5,302.8c6.7,0.6,8.1,1.4,8.3,1.9l1.4-3.3
		l-11.5-4.6c0,0-0.3-5.4,1.3-5.6s7.4-12.5,10-12.6s-19.8-5.3-26.8,8.6l-2.2,1l-10.4-0.5c1.7,1.1,3.3,2.4,4.8,3.8
		C606.6,293,620.1,301.9,630.5,302.8 M381.2,402c-2.1-2.3-21.9,7.8-22.5,16.9l-12.1,1l4.8,4.2c0,0,12.1,8.2,17.3,8.9
		c3,0.3,5.9,1.2,8.6,2.6l3.9,2l0.9-6.5l-10.8-4C371.4,427.2,383.3,404.3,381.2,402 M76.4,258.8c-3.6,0-13.2-3.8-18.3-1.4l8.2,6.2
		c0,0-7.8,23.5-5.8,26.2s14.9-8.8,14.9-8.8l-2.4-4.4l5.2,1.2l5.2-7.5l5.3,0.2l6.1,3.8l3.9-2.5l-6.5-4.4
		C92,267.4,80,258.7,76.4,258.8 M225.2,251.3c1.9-1.2,4.3-0.9,5.8,0.7l6.5,4.9l3.8-1.6c0,0-5-7.3-8.5-8.2s-2.1-6.4-15-8.6
		c-9.5-1.6-11.8-2.9-12.4-3.4l4.8,7c0,0-12.2,15.7-12.5,17.8C197.7,259.9,221.9,253.4,225.2,251.3"/>
</g>
</svg>
